<?xml version="1.0" encoding="UTF-8" standalone="no"?><!DOCTYPE svg PUBLIC "-//W3C//DTD SVG 1.1//EN" "http://www.w3.org/Graphics/SVG/1.1/DTD/svg11.dtd"><!-- Generated by graphviz version 2.40.1 (20161225.0304)
 --><!-- Title: %0 Pages: 1 --><svg xmlns="http://www.w3.org/2000/svg" xmlns:xlink="http://www.w3.org/1999/xlink" width="207pt" height="332pt" viewBox="0.00 0.00 207.00 332.00">
<g id="graph0" class="graph" transform="scale(1 1) rotate(0) translate(4 328)">
<title>%0</title>
<polygon fill="#ffffff" stroke="transparent" points="-4,4 -4,-328 203,-328 203,4 -4,4"/>
<!-- n19 -->
<g id="node1" class="node">
<title>n19</title>
<ellipse fill="none" stroke="#000000" cx="77" cy="-306" rx="44.6434" ry="18"/>
<text text-anchor="middle" x="77" y="-301.8" font-family="Times,serif" font-size="14.00" fill="#000000">INT_EQ</text>
</g>
<!-- n20 -->
<g id="node2" class="node">
<title>n20</title>
<ellipse fill="none" stroke="#000000" cx="30" cy="-234" rx="27" ry="18"/>
<text text-anchor="middle" x="30" y="-229.8" font-family="Times,serif" font-size="14.00" fill="#000000">x</text>
</g>
<!-- n19&#45;&gt;n20 -->
<g id="edge1" class="edge">
<title>n19-&gt;n20</title>
<path fill="none" stroke="#000000" d="M65.6226,-288.5708C59.8818,-279.7763 52.8118,-268.9457 46.4876,-259.2577"/>
<polygon fill="#000000" stroke="#000000" points="49.3461,-257.2335 40.949,-250.7729 43.4844,-261.0599 49.3461,-257.2335"/>
</g>
<!-- n27 -->
<g id="node3" class="node">
<title>n27</title>
<ellipse fill="none" stroke="#000000" cx="124" cy="-234" rx="49.2163" ry="18"/>
<text text-anchor="middle" x="124" y="-229.8" font-family="Times,serif" font-size="14.00" fill="#000000">INT_DIV</text>
</g>
<!-- n19&#45;&gt;n27 -->
<g id="edge2" class="edge">
<title>n19-&gt;n27</title>
<path fill="none" stroke="#000000" d="M88.3774,-288.5708C93.9361,-280.0553 100.741,-269.6308 106.9083,-260.183"/>
<polygon fill="#000000" stroke="#000000" points="110.029,-261.8052 112.5645,-251.5182 104.1674,-257.9789 110.029,-261.8052"/>
</g>
<!-- n25 -->
<g id="node4" class="node">
<title>n25</title>
<ellipse fill="none" stroke="#000000" cx="76" cy="-162" rx="50.9619" ry="18"/>
<text text-anchor="middle" x="76" y="-157.8" font-family="Times,serif" font-size="14.00" fill="#000000">INT_SUB</text>
</g>
<!-- n27&#45;&gt;n25 -->
<g id="edge3" class="edge">
<title>n27-&gt;n25</title>
<path fill="none" stroke="#000000" d="M112.1348,-216.2022C106.4965,-207.7448 99.6457,-197.4685 93.4313,-188.147"/>
<polygon fill="#000000" stroke="#000000" points="96.1879,-185.9721 87.7287,-179.593 90.3635,-189.855 96.1879,-185.9721"/>
</g>
<!-- n26 -->
<g id="node9" class="node">
<title>n26</title>
<ellipse fill="none" stroke="#000000" cx="172" cy="-162" rx="27" ry="18"/>
<text text-anchor="middle" x="172" y="-157.8" font-family="Times,serif" font-size="14.00" fill="#000000">186</text>
</g>
<!-- n27&#45;&gt;n26 -->
<g id="edge4" class="edge">
<title>n27-&gt;n26</title>
<path fill="none" stroke="#000000" d="M135.8652,-216.2022C141.7316,-207.4025 148.9108,-196.6338 155.3199,-187.0202"/>
<polygon fill="#000000" stroke="#000000" points="158.2946,-188.8678 160.9294,-178.6058 152.4702,-184.9849 158.2946,-188.8678"/>
</g>
<!-- n21 -->
<g id="node5" class="node">
<title>n21</title>
<ellipse fill="none" stroke="#000000" cx="27" cy="-90" rx="27" ry="18"/>
<text text-anchor="middle" x="27" y="-85.8" font-family="Times,serif" font-size="14.00" fill="#000000">z</text>
</g>
<!-- n25&#45;&gt;n21 -->
<g id="edge5" class="edge">
<title>n25-&gt;n21</title>
<path fill="none" stroke="#000000" d="M63.8876,-144.2022C57.8989,-135.4025 50.5702,-124.6338 44.0276,-115.0202"/>
<polygon fill="#000000" stroke="#000000" points="46.821,-112.9038 38.3012,-106.6058 41.034,-116.8422 46.821,-112.9038"/>
</g>
<!-- n24 -->
<g id="node6" class="node">
<title>n24</title>
<ellipse fill="none" stroke="#000000" cx="125" cy="-90" rx="52.7295" ry="18"/>
<text text-anchor="middle" x="125" y="-85.8" font-family="Times,serif" font-size="14.00" fill="#000000">INT_ADD</text>
</g>
<!-- n25&#45;&gt;n24 -->
<g id="edge6" class="edge">
<title>n25-&gt;n24</title>
<path fill="none" stroke="#000000" d="M88.1124,-144.2022C93.8681,-135.7448 100.8617,-125.4685 107.2055,-116.147"/>
<polygon fill="#000000" stroke="#000000" points="110.2942,-117.8294 113.027,-107.593 104.5072,-113.891 110.2942,-117.8294"/>
</g>
<!-- n22 -->
<g id="node7" class="node">
<title>n22</title>
<ellipse fill="none" stroke="#000000" cx="89" cy="-18" rx="27" ry="18"/>
<text text-anchor="middle" x="89" y="-13.8" font-family="Times,serif" font-size="14.00" fill="#000000">y</text>
</g>
<!-- n24&#45;&gt;n22 -->
<g id="edge7" class="edge">
<title>n24-&gt;n22</title>
<path fill="none" stroke="#000000" d="M116.1011,-72.2022C111.8978,-63.7955 106.7959,-53.5917 102.1575,-44.3149"/>
<polygon fill="#000000" stroke="#000000" points="105.1513,-42.4762 97.5486,-35.0972 98.8903,-45.6068 105.1513,-42.4762"/>
</g>
<!-- n23 -->
<g id="node8" class="node">
<title>n23</title>
<ellipse fill="none" stroke="#000000" cx="161" cy="-18" rx="27" ry="18"/>
<text text-anchor="middle" x="161" y="-13.8" font-family="Times,serif" font-size="14.00" fill="#000000">789</text>
</g>
<!-- n24&#45;&gt;n23 -->
<g id="edge8" class="edge">
<title>n24-&gt;n23</title>
<path fill="none" stroke="#000000" d="M133.8989,-72.2022C138.1022,-63.7955 143.2041,-53.5917 147.8425,-44.3149"/>
<polygon fill="#000000" stroke="#000000" points="151.1097,-45.6068 152.4514,-35.0972 144.8487,-42.4762 151.1097,-45.6068"/>
</g>
</g>
</svg>