<?xml version="1.0" encoding="UTF-8" standalone="no"?><!DOCTYPE svg PUBLIC "-//W3C//DTD SVG 1.1//EN" "http://www.w3.org/Graphics/SVG/1.1/DTD/svg11.dtd"><!-- Generated by graphviz version 2.40.1 (20161225.0304)
 --><!-- Title: %0 Pages: 1 --><svg xmlns="http://www.w3.org/2000/svg" xmlns:xlink="http://www.w3.org/1999/xlink" width="207pt" height="332pt" viewBox="0.00 0.00 207.00 332.00">
<g id="graph0" class="graph" transform="scale(1 1) rotate(0) translate(4 328)">
<title>%0</title>
<polygon fill="#ffffff" stroke="transparent" points="-4,4 -4,-328 203,-328 203,4 -4,4"/>
<!-- n10 -->
<g id="node1" class="node">
<title>n10</title>
<ellipse fill="none" stroke="#000000" cx="76" cy="-306" rx="44.6434" ry="18"/>
<text text-anchor="middle" x="76" y="-301.8" font-family="Times,serif" font-size="14.00" fill="#000000">INT_EQ</text>
</g>
<!-- n11 -->
<g id="node2" class="node">
<title>n11</title>
<ellipse fill="none" stroke="#000000" cx="28" cy="-234" rx="27" ry="18"/>
<text text-anchor="middle" x="28" y="-229.8" font-family="Times,serif" font-size="14.00" fill="#000000">y</text>
</g>
<!-- n10&#45;&gt;n11 -->
<g id="edge1" class="edge">
<title>n10-&gt;n11</title>
<path fill="none" stroke="#000000" d="M64.3805,-288.5708C58.5176,-279.7763 51.2971,-268.9457 44.8384,-259.2577"/>
<polygon fill="#000000" stroke="#000000" points="47.6412,-257.152 39.1819,-250.7729 41.8168,-261.0349 47.6412,-257.152"/>
</g>
<!-- n18 -->
<g id="node3" class="node">
<title>n18</title>
<ellipse fill="none" stroke="#000000" cx="124" cy="-234" rx="50.9619" ry="18"/>
<text text-anchor="middle" x="124" y="-229.8" font-family="Times,serif" font-size="14.00" fill="#000000">INT_SUB</text>
</g>
<!-- n10&#45;&gt;n18 -->
<g id="edge2" class="edge">
<title>n10-&gt;n18</title>
<path fill="none" stroke="#000000" d="M87.6195,-288.5708C93.355,-279.9675 100.3896,-269.4156 106.7393,-259.8911"/>
<polygon fill="#000000" stroke="#000000" points="109.6863,-261.7802 112.3212,-251.5182 103.8619,-257.8973 109.6863,-261.7802"/>
</g>
<!-- n16 -->
<g id="node4" class="node">
<title>n16</title>
<ellipse fill="none" stroke="#000000" cx="76" cy="-162" rx="50.9619" ry="18"/>
<text text-anchor="middle" x="76" y="-157.8" font-family="Times,serif" font-size="14.00" fill="#000000">INT_SUB</text>
</g>
<!-- n18&#45;&gt;n16 -->
<g id="edge3" class="edge">
<title>n18-&gt;n16</title>
<path fill="none" stroke="#000000" d="M112.1348,-216.2022C106.4965,-207.7448 99.6457,-197.4685 93.4313,-188.147"/>
<polygon fill="#000000" stroke="#000000" points="96.1879,-185.9721 87.7287,-179.593 90.3635,-189.855 96.1879,-185.9721"/>
</g>
<!-- n17 -->
<g id="node9" class="node">
<title>n17</title>
<ellipse fill="none" stroke="#000000" cx="172" cy="-162" rx="27" ry="18"/>
<text text-anchor="middle" x="172" y="-157.8" font-family="Times,serif" font-size="14.00" fill="#000000">789</text>
</g>
<!-- n18&#45;&gt;n17 -->
<g id="edge4" class="edge">
<title>n18-&gt;n17</title>
<path fill="none" stroke="#000000" d="M135.8652,-216.2022C141.7316,-207.4025 148.9108,-196.6338 155.3199,-187.0202"/>
<polygon fill="#000000" stroke="#000000" points="158.2946,-188.8678 160.9294,-178.6058 152.4702,-184.9849 158.2946,-188.8678"/>
</g>
<!-- n12 -->
<g id="node5" class="node">
<title>n12</title>
<ellipse fill="none" stroke="#000000" cx="27" cy="-90" rx="27" ry="18"/>
<text text-anchor="middle" x="27" y="-85.8" font-family="Times,serif" font-size="14.00" fill="#000000">z</text>
</g>
<!-- n16&#45;&gt;n12 -->
<g id="edge5" class="edge">
<title>n16-&gt;n12</title>
<path fill="none" stroke="#000000" d="M63.8876,-144.2022C57.8989,-135.4025 50.5702,-124.6338 44.0276,-115.0202"/>
<polygon fill="#000000" stroke="#000000" points="46.821,-112.9038 38.3012,-106.6058 41.034,-116.8422 46.821,-112.9038"/>
</g>
<!-- n15 -->
<g id="node6" class="node">
<title>n15</title>
<ellipse fill="none" stroke="#000000" cx="125" cy="-90" rx="53.3109" ry="18"/>
<text text-anchor="middle" x="125" y="-85.8" font-family="Times,serif" font-size="14.00" fill="#000000">INT_MUL</text>
</g>
<!-- n16&#45;&gt;n15 -->
<g id="edge6" class="edge">
<title>n16-&gt;n15</title>
<path fill="none" stroke="#000000" d="M88.1124,-144.2022C93.8681,-135.7448 100.8617,-125.4685 107.2055,-116.147"/>
<polygon fill="#000000" stroke="#000000" points="110.2942,-117.8294 113.027,-107.593 104.5072,-113.891 110.2942,-117.8294"/>
</g>
<!-- n13 -->
<g id="node7" class="node">
<title>n13</title>
<ellipse fill="none" stroke="#000000" cx="89" cy="-18" rx="27" ry="18"/>
<text text-anchor="middle" x="89" y="-13.8" font-family="Times,serif" font-size="14.00" fill="#000000">186</text>
</g>
<!-- n15&#45;&gt;n13 -->
<g id="edge7" class="edge">
<title>n15-&gt;n13</title>
<path fill="none" stroke="#000000" d="M116.1011,-72.2022C111.8978,-63.7955 106.7959,-53.5917 102.1575,-44.3149"/>
<polygon fill="#000000" stroke="#000000" points="105.1513,-42.4762 97.5486,-35.0972 98.8903,-45.6068 105.1513,-42.4762"/>
</g>
<!-- n14 -->
<g id="node8" class="node">
<title>n14</title>
<ellipse fill="none" stroke="#000000" cx="161" cy="-18" rx="27" ry="18"/>
<text text-anchor="middle" x="161" y="-13.8" font-family="Times,serif" font-size="14.00" fill="#000000">x</text>
</g>
<!-- n15&#45;&gt;n14 -->
<g id="edge8" class="edge">
<title>n15-&gt;n14</title>
<path fill="none" stroke="#000000" d="M133.8989,-72.2022C138.1022,-63.7955 143.2041,-53.5917 147.8425,-44.3149"/>
<polygon fill="#000000" stroke="#000000" points="151.1097,-45.6068 152.4514,-35.0972 144.8487,-42.4762 151.1097,-45.6068"/>
</g>
</g>
</svg>