<?xml version="1.0" encoding="UTF-8" standalone="no"?><!DOCTYPE svg PUBLIC "-//W3C//DTD SVG 1.1//EN" "http://www.w3.org/Graphics/SVG/1.1/DTD/svg11.dtd"><!-- Generated by graphviz version 2.40.1 (20161225.0304)
 --><!-- Title: %0 Pages: 1 --><svg xmlns="http://www.w3.org/2000/svg" xmlns:xlink="http://www.w3.org/1999/xlink" width="304pt" height="260pt" viewBox="0.00 0.00 304.00 260.00">
<g id="graph0" class="graph" transform="scale(1 1) rotate(0) translate(4 256)">
<title>%0</title>
<polygon fill="#ffffff" stroke="transparent" points="-4,4 -4,-256 300,-256 300,4 -4,4"/>
<!-- n1 -->
<g id="node1" class="node">
<title>n1</title>
<ellipse fill="none" stroke="#000000" cx="99" cy="-234" rx="44.6434" ry="18"/>
<text text-anchor="middle" x="99" y="-229.8" font-family="Times,serif" font-size="14.00" fill="#000000">INT_EQ</text>
</g>
<!-- n2 -->
<g id="node2" class="node">
<title>n2</title>
<ellipse fill="none" stroke="#000000" cx="50" cy="-162" rx="27" ry="18"/>
<text text-anchor="middle" x="50" y="-157.8" font-family="Times,serif" font-size="14.00" fill="#000000">z</text>
</g>
<!-- n1&#45;&gt;n2 -->
<g id="edge1" class="edge">
<title>n1-&gt;n2</title>
<path fill="none" stroke="#000000" d="M87.1385,-216.5708C81.1533,-207.7763 73.7825,-196.9457 67.1892,-187.2577"/>
<polygon fill="#000000" stroke="#000000" points="69.9347,-185.0709 61.4149,-178.7729 64.1477,-189.0093 69.9347,-185.0709"/>
</g>
<!-- n9 -->
<g id="node3" class="node">
<title>n9</title>
<ellipse fill="none" stroke="#000000" cx="148" cy="-162" rx="52.7295" ry="18"/>
<text text-anchor="middle" x="148" y="-157.8" font-family="Times,serif" font-size="14.00" fill="#000000">INT_ADD</text>
</g>
<!-- n1&#45;&gt;n9 -->
<g id="edge2" class="edge">
<title>n1-&gt;n9</title>
<path fill="none" stroke="#000000" d="M110.8615,-216.5708C116.6732,-208.0312 123.7914,-197.5719 130.2355,-188.1029"/>
<polygon fill="#000000" stroke="#000000" points="133.1745,-190.0052 135.9073,-179.7689 127.3875,-186.0668 133.1745,-190.0052"/>
</g>
<!-- n5 -->
<g id="node4" class="node">
<title>n5</title>
<ellipse fill="none" stroke="#000000" cx="86" cy="-90" rx="52.7295" ry="18"/>
<text text-anchor="middle" x="86" y="-85.8" font-family="Times,serif" font-size="14.00" fill="#000000">INT_ADD</text>
</g>
<!-- n9&#45;&gt;n5 -->
<g id="edge3" class="edge">
<title>n9-&gt;n5</title>
<path fill="none" stroke="#000000" d="M132.9915,-144.5708C125.4319,-135.7919 116.1252,-124.9841 107.7941,-115.3093"/>
<polygon fill="#000000" stroke="#000000" points="110.2626,-112.8121 101.0851,-107.5182 104.9582,-117.3798 110.2626,-112.8121"/>
</g>
<!-- n8 -->
<g id="node7" class="node">
<title>n8</title>
<ellipse fill="none" stroke="#000000" cx="210" cy="-90" rx="53.3109" ry="18"/>
<text text-anchor="middle" x="210" y="-85.8" font-family="Times,serif" font-size="14.00" fill="#000000">INT_MUL</text>
</g>
<!-- n9&#45;&gt;n8 -->
<g id="edge4" class="edge">
<title>n9-&gt;n8</title>
<path fill="none" stroke="#000000" d="M163.0085,-144.5708C170.5681,-135.7919 179.8748,-124.9841 188.2059,-115.3093"/>
<polygon fill="#000000" stroke="#000000" points="191.0418,-117.3798 194.9149,-107.5182 185.7374,-112.8121 191.0418,-117.3798"/>
</g>
<!-- n3 -->
<g id="node5" class="node">
<title>n3</title>
<ellipse fill="none" stroke="#000000" cx="27" cy="-18" rx="27" ry="18"/>
<text text-anchor="middle" x="27" y="-13.8" font-family="Times,serif" font-size="14.00" fill="#000000">y</text>
</g>
<!-- n5&#45;&gt;n3 -->
<g id="edge5" class="edge">
<title>n5-&gt;n3</title>
<path fill="none" stroke="#000000" d="M71.7177,-72.5708C64.2575,-63.4668 55.0092,-52.1808 46.8626,-42.2391"/>
<polygon fill="#000000" stroke="#000000" points="49.3874,-39.7981 40.3419,-34.2817 43.973,-44.2349 49.3874,-39.7981"/>
</g>
<!-- n4 -->
<g id="node6" class="node">
<title>n4</title>
<ellipse fill="none" stroke="#000000" cx="99" cy="-18" rx="27" ry="18"/>
<text text-anchor="middle" x="99" y="-13.8" font-family="Times,serif" font-size="14.00" fill="#000000">789</text>
</g>
<!-- n5&#45;&gt;n4 -->
<g id="edge6" class="edge">
<title>n5-&gt;n4</title>
<path fill="none" stroke="#000000" d="M89.2804,-71.8314C90.6922,-64.0125 92.375,-54.6923 93.9405,-46.0221"/>
<polygon fill="#000000" stroke="#000000" points="97.433,-46.3762 95.7656,-35.9134 90.5444,-45.1324 97.433,-46.3762"/>
</g>
<!-- n6 -->
<g id="node8" class="node">
<title>n6</title>
<ellipse fill="none" stroke="#000000" cx="197" cy="-18" rx="27" ry="18"/>
<text text-anchor="middle" x="197" y="-13.8" font-family="Times,serif" font-size="14.00" fill="#000000">186</text>
</g>
<!-- n8&#45;&gt;n6 -->
<g id="edge7" class="edge">
<title>n8-&gt;n6</title>
<path fill="none" stroke="#000000" d="M206.7196,-71.8314C205.3078,-64.0125 203.625,-54.6923 202.0595,-46.0221"/>
<polygon fill="#000000" stroke="#000000" points="205.4556,-45.1324 200.2344,-35.9134 198.567,-46.3762 205.4556,-45.1324"/>
</g>
<!-- n7 -->
<g id="node9" class="node">
<title>n7</title>
<ellipse fill="none" stroke="#000000" cx="269" cy="-18" rx="27" ry="18"/>
<text text-anchor="middle" x="269" y="-13.8" font-family="Times,serif" font-size="14.00" fill="#000000">x</text>
</g>
<!-- n8&#45;&gt;n7 -->
<g id="edge8" class="edge">
<title>n8-&gt;n7</title>
<path fill="none" stroke="#000000" d="M224.2823,-72.5708C231.7425,-63.4668 240.9908,-52.1808 249.1374,-42.2391"/>
<polygon fill="#000000" stroke="#000000" points="252.027,-44.2349 255.6581,-34.2817 246.6126,-39.7981 252.027,-44.2349"/>
</g>
</g>
</svg>